# xmcd
#
# Track frame offsets: 
#        150
#        13625
#        27647
#        52530
#        67822
#        92322
#        106110
#        118932
#        132705
#        144457
#
# Disc length: 2170 seconds
#
# Revision: 4
# Processed by: cddbd v1.5.2PL0 Copyright (c) Steve Scherf et al.
# Submitted via: ExactAudioCopy v0.99pb5
#
DISCID=7d08780a
DTITLE=Dwight Yoakam - In Others' Words
DYEAR=2003
DGENRE=Country
TTITLE0=Borrowed Love
TTITLE1=Rocky Road Blues
TTITLE2=T For Texas 
TTITLE3=Cattle Call 
TTITLE4=Truckin' 
TTITLE5=New San Antonio Rose
TTITLE6=Rapid City, South Dakota
TTITLE7=Louisville
TTITLE8=Holding Things Together
TTITLE9=Mystery Train 
EXTD=
EXTT0=
EXTT1=
EXTT2=
EXTT3=
EXTT4=
EXTT5=
EXTT6=
EXTT7=
EXTT8=
EXTT9=
PLAYORDER=
